<?xml version="1.0" encoding="iso-8859-1"?>
<!-- Generator: Adobe Illustrator 19.0.0, SVG Export Plug-In . SVG Version: 6.00 Build 0)  -->
<svg version="1.1" id="Capa_1" xmlns="http://www.w3.org/2000/svg" xmlns:xlink="http://www.w3.org/1999/xlink" x="0px" y="0px"
	 viewBox="0 0 512 512" style="enable-background:new 0 0 512 512;" xml:space="preserve">
<path style="fill:#F44D4D;" d="M418.566,382.61c-27.481,27.47-60.044,45.977-93.335,55.183
	c-42.761,11.81-86.723,8.257-122.651-11.431h-0.01l-74.29,74.29c-1.898,1.898-3.933,3.544-6.085,4.967
	c-6.443,4.26-13.877,6.38-21.311,6.38c-9.912,0-19.835-3.775-27.407-11.347c-15.133-15.132-15.133-39.67,0-54.803l13.171-13.171
	l61.12-61.12c-19.793-36.117-23.273-80.365-11.231-123.347c9.258-33.049,27.702-65.359,54.993-92.64
	c53.39-53.401,126.004-72.962,185.837-56.047c22.988,6.485,44.089,18.359,61.488,35.758
	C501.546,197.976,492.466,308.7,418.566,382.61z"/>
<path style="fill:#DB3B3B;" d="M377.134,268.859c-15.986,36.107-40.197,65.464-68.523,86.09
	c-29.853,21.745-64.262,33.786-98.386,33.786c-6.286,0-12.57-0.411-18.813-1.244l-39.755,74.085l-2.784,6.285
	c-5.125,11.578-15.227,19.392-26.679,22.061c-2.858,0.664-5.811,1.012-8.784,1.012c-5.231,0-10.556,14.631-15.66,12.374
	c-19.571-8.668-28.409-31.562-19.741-51.123l8.637-19.509l61.12-61.12c-19.793-36.117-23.273-80.365-11.231-123.347
	c9.258-33.049,27.702-65.359,54.993-92.64c53.39-53.401,126.004-72.962,185.837-56.047
	C401.304,147.559,403.065,210.282,377.134,268.859z"/>
<path style="fill:#E29F33;" d="M325.232,437.793c-42.761,11.81-86.723,8.257-122.651-11.431h-0.01l-74.29,74.29
	C120.709,508.224,110.796,512,100.884,512s-19.835-3.775-27.407-11.347c-15.133-15.132-15.133-39.67,0-54.803l74.29-74.29
	c-19.793-36.117-23.273-80.365-11.231-123.347l188.611,188.62L325.232,437.793z"/>
<path style="fill:#55B5E0;" d="M343.887,249.883c-15.989,36.1-40.202,65.461-68.527,86.085
	c-29.853,21.744-64.258,33.787-98.38,33.787c-6.289,0-12.567-0.408-18.814-1.245l-42.535,96.068
	c-6.404,14.471-20.593,23.073-35.472,23.073c-5.221,0-10.547-1.067-15.654-3.317c-19.578-8.674-28.409-31.569-19.745-51.126
	l42.546-96.068l-0.01-0.01c-31.485-26.567-50.676-66.57-54.914-110.999v-0.01c-2.323-24.182-0.209-49.671,6.77-75.015
	c2.867-10.464,6.582-20.907,11.144-31.213C61.774,93.973,77.49,71.518,95.938,53.29c49.535-49.002,118.68-67.596,177.768-41.436
	C354.779,47.744,386.191,154.318,343.887,249.883z"/>
<path style="fill:#FCE381;" d="M276.281,334.123l-0.918,1.846c-29.853,21.745-64.262,33.786-98.386,33.786
	c-6.285,0-12.57-0.411-18.813-1.244l-42.539,96.066c-6.401,14.468-20.584,23.074-35.464,23.074c-5.231,0-10.556-1.065-15.66-3.322
	c-19.571-8.668-28.409-31.562-19.741-51.123L87.3,337.14l-0.01-0.01c-31.476-26.564-50.669-66.572-54.907-110.998L276.281,334.123z"
	/>
<path style="fill:#188EB7;" d="M149,113.959c0,33.798-27.405,61.202-61.213,61.202c-19.829,0-37.46-9.438-48.635-24.056
	c2.867-10.464,6.582-20.907,11.144-31.213C61.774,93.973,77.49,71.518,95.938,53.29C125.896,57.267,149,82.912,149,113.959z"/>
<circle style="fill:#DEDEDE;" cx="108.718" cy="108.728" r="61.213"/>
<path style="fill:#F0F0F0;" d="M169.927,108.727c0,27.802-18.552,51.283-43.948,58.733c-25.395-7.45-43.948-30.931-43.948-58.733
	c0-27.813,18.552-51.293,43.948-58.743C151.375,57.434,169.927,80.915,169.927,108.727z"/>
<g>
</g>
<g>
</g>
<g>
</g>
<g>
</g>
<g>
</g>
<g>
</g>
<g>
</g>
<g>
</g>
<g>
</g>
<g>
</g>
<g>
</g>
<g>
</g>
<g>
</g>
<g>
</g>
<g>
</g>
</svg>
